<?xml version="1.0" encoding="utf-8"?>
<!-- Generator: Adobe Illustrator 14.0.0, SVG Export Plug-In . SVG Version: 6.00 Build 43363)  -->
<!DOCTYPE svg PUBLIC "-//W3C//DTD SVG 1.1//EN" "http://www.w3.org/Graphics/SVG/1.1/DTD/svg11.dtd">
<svg version="1.1" id="Layer_1" xmlns="http://www.w3.org/2000/svg" xmlns:xlink="http://www.w3.org/1999/xlink" x="0px" y="0px"
	 width="300px" height="160px" viewBox="0 0 300 160" enable-background="new 0 0 300 160" xml:space="preserve">
<path d="M7.634,80.531c0-39.62,32.111-71.718,71.719-71.718s71.719,32.098,71.719,71.718c0,39.597-32.11,71.707-71.719,71.707
	S7.634,120.128,7.634,80.531 M120.474,81.04h7.752L110.81,41.322H99.405l17.476,39.718h-7.958v10.546
	c0.024,6.386-2.661,9.119-11.345,8.998v20.343h11.308v-20.343h3.737c3.302,0.097,7.789-2.588,7.849-7.813V81.04z M65.687,41.322
	c-17.464,0-31.844,12.191-31.844,30.284c0,15.214,9.167,26.075,22.834,28.154v21.166h28.446v-20.343h3.955
	c4.62-0.436,7.74-3.483,7.789-7.777V81.04h7.752L86.985,41.322H65.687z M81.397,75.779c4.052,0,7.329-3.278,7.329-7.342
	c0-4.051-3.277-7.329-7.329-7.329s-7.341,3.277-7.341,7.329C74.056,72.501,77.345,75.779,81.397,75.779"/>
<path d="M175.792,62.717h-6.579v-8.14h21.758c11.792,0,18.553,6.083,18.553,15.65c0,9.748-7.063,15.687-18.25,15.687
	c-0.932,0.013-5.963,0-5.963,0v12.385h7.705v8.188h-23.887v-8.188h6.663V62.717z M185.311,77.738h6.35
	c5.395,0,8.346-3.35,8.346-7.511c0-4.293-3.096-7.522-8.346-7.522h-6.35V77.738z"/>
<path d="M218.812,62.717h-5.974v-8.14h20.861c12.918,0,17.029,7.728,17.029,13.364c0,4.777-2.54,8.623-6.253,10.437
	c5.213,2.177,8.151,7.548,8.151,12.239c0,11.309-8.877,15.868-17.379,15.868H212.16v-8.188h6.651V62.717z M228.33,98.299h6.059
	c4.995,0,8.381-2.746,8.381-7.391c0-3.942-2.635-7.365-8.381-7.365h-6.059V98.299z M228.33,75.355h5.685
	c4.281,0,7.172-2.54,7.172-6.338c0-3.749-2.867-6.3-7.172-6.3h-5.685V75.355z"/>
<path d="M283.237,62.608c-1.692-0.653-3.918-1.246-6.155-1.246c-6.361,0-8.395,3.688-8.395,6.567c0,3.75,2.432,4.861,5.455,5.672
	l5.49,1.549c6.762,1.923,14.235,4.413,14.235,15.105c0,9.797-5.902,16.944-18.951,16.944c-5.056,0-10.304-0.593-16.461-2.867V90.69
	h9.579v6.772c2.419,1.113,5.056,1.343,7.74,1.343c5.636,0,8.127-3.035,8.127-6.941c0-2.648-1.317-4.56-7.475-6.325l-5.055-1.476
	c-9.446-2.722-12.649-6.857-12.649-14.803c0-8.2,5.115-15.408,18.092-15.408c5.588,0,11.15,1.016,15.082,2.721v12.312h-8.66V62.608z
	"/>
</svg>
