<?xml version="1.0" encoding="UTF-8" standalone="no"?>
<!-- Generator: Adobe Illustrator 12.0.0, SVG Export Plug-In . SVG Version: 6.00 Build 51448)  -->
<svg
   xmlns:dc="http://purl.org/dc/elements/1.1/"
   xmlns:cc="http://web.resource.org/cc/"
   xmlns:rdf="http://www.w3.org/1999/02/22-rdf-syntax-ns#"
   xmlns:svg="http://www.w3.org/2000/svg"
   xmlns="http://www.w3.org/2000/svg"
   xmlns:sodipodi="http://sodipodi.sourceforge.net/DTD/sodipodi-0.dtd"
   xmlns:inkscape="http://www.inkscape.org/namespaces/inkscape"
   version="1.1"
   id="Layer_1"
   width="329.149"
   height="43.537"
   viewBox="0 0 329.149 43.537"
   overflow="visible"
   enable-background="new 0 0 329.149 43.537"
   xml:space="preserve"
   sodipodi:version="0.32"
   inkscape:version="0.44.1"
   sodipodi:docname="The_Onion.svg"
   sodipodi:docbase="C:\Documents and Settings\Compaq_Owner\My Documents"><metadata
   id="metadata1972"><rdf:RDF><cc:Work
       rdf:about=""><dc:format>image/svg+xml</dc:format><dc:type
         rdf:resource="http://purl.org/dc/dcmitype/StillImage" /></cc:Work></rdf:RDF></metadata><defs
   id="defs1970" /><sodipodi:namedview
   inkscape:window-height="573"
   inkscape:window-width="853"
   inkscape:pageshadow="2"
   inkscape:pageopacity="0.0"
   guidetolerance="10.0"
   gridtolerance="10.0"
   objecttolerance="10.0"
   borderopacity="1.0"
   bordercolor="#666666"
   pagecolor="#ffffff"
   id="base"
   inkscape:zoom="2.336328"
   inkscape:cx="164.57449"
   inkscape:cy="21.768499"
   inkscape:window-x="110"
   inkscape:window-y="110"
   inkscape:current-layer="Layer_1" />
<g
   id="g1945">
	<path
   fill="#008240"
   d="M1.3,38.015c-0.591-0.859,1.774-1.345,2.205-2.312c2.151-4.087-1.667-2.42-3.28-11.775   C-2.894,6.237,27.379,6.237,31.411,5.539C35.121,4.893,31.358,0,34.261,0c0.968,0,0,2.527,0.968,2.903   c1.021,0.431,1.613-2.312,2.635-1.451c1.398,1.183-1.344,2.258-0.591,3.011C37.81,5,39.101,3.979,39.531,4.678   c0.752,1.129-1.291,1.881-3.119,2.205c-6.667,1.129,7.635,30.273-15.593,34.304c-6.129,1.129-8.979-4.246-13.55-1.612   c-1.13,0.646-1.936,3.118-2.635,2.098c-0.43-0.646,0.699-1.668,0-2.098c-0.483-0.269-1.182,0.914-1.667,0.483   c-0.376-0.376,0.162-0.968-0.215-1.451C2.43,38.124,1.677,38.553,1.3,38.015z M10.334,13.711c3.656-2.688,10.7-4.893,9.194-4.838   C14.42,9.033,4.043,13.228,3.559,19.68C3.397,21.723,6.677,16.4,10.334,13.711z M16.786,21.777   C23.4,12.635,33.24,9.356,32.111,8.227c-1.344-1.344-7.259,0.484-7.259,0.484C15.657,11.937,5.656,17.959,5.01,25.488   c-0.214,2.203,0.43,6.345,3.226,8.064C10.172,34.736,13.506,26.293,16.786,21.777z M24.045,36.295   c8.603-3.065,8.496-14.25,7.098-11.131c-1.397,3.065-2.313,5.538-5.323,7.258c-2.366,1.345-4.033,1.506-6.937,1.453   c-2.42-0.054-4.624-2.043-5.323,0.967C12.807,38.176,20.873,37.424,24.045,36.295z M17.108,30.165   c2.474,0.43,10.377-1.397,13.066-10.808c2.743-9.679,1.344-7.742-6.613,0.483C19.259,24.303,15.872,29.95,17.108,30.165z"
   id="path1947" />
</g>
<g
   id="g1949">
	<path
   d="M63.041,42.875c-7.169,0-8.49-5.423-8.49-10.8v-5.803l-3.867,0.143v-6.98l3.867,0.095v-9.057l8.773-0.896v10l5.707-0.142   v6.98l-5.707-0.189v5.661c0,2.546,0.755,3.49,2.594,3.49c0.943,0,2.217-0.189,2.783-0.613l1.934,6.084   C69.738,41.46,68.229,42.875,63.041,42.875z"
   id="path1951" />
	<path
   d="M82.472,20.944c0,0,3.584-2.264,9.197-2.264c4.246,0,6.368,3.773,6.368,7.972v15.753h-8.772v-10.66   c0-3.867,0-6.509-3.161-6.509c-1.651,0-3.632,1.227-3.632,1.227v15.942h-8.82V5.663l8.82-0.708V20.944z"
   id="path1953" />
	<path
   d="M113.648,43.207c-7.924,0-12.499-5.282-12.499-13.254c0-7.121,5.99-11.744,13.537-11.744   c6.65,0,11.838,4.575,11.838,11.886v1.886h-17.216c0,2.736,3.208,4.01,5.565,4.01c2.783,0,4.293-0.708,5.189-1.463l4.245,4.622   C123.223,40.094,119.828,43.207,113.648,43.207z M114.733,24.529c-2.17,0-5,1.32-5.377,2.735h7.216c0.802,0,1.792,0,1.792-0.707   C118.365,24.906,116.762,24.529,114.733,24.529z"
   id="path1955" />
	<path
   d="M162.088,43.537c-10.66,0-18.725-8.254-18.725-19.81c0-10.848,9.15-18.584,18.725-18.584   c9.528,0,18.725,7.736,18.725,18.584C180.813,35.283,172.748,43.537,162.088,43.537z M162.088,30.896   c3.443,0,6.603-2.971,6.603-7.169c0-3.396-3.16-6.273-6.603-6.273c-3.491,0-6.65,2.876-6.65,6.273   C155.438,27.925,158.598,30.896,162.088,30.896z"
   id="path1957" />
	<path
   d="M207.745,21.274V6.464l11.98-0.801v37.543L196.52,27.217v15.046h-12.027V4.625L207.745,21.274z"
   id="path1959" />
	<path
   d="M224.726,42.263V6.464H236.8v35.799H224.726z"
   id="path1961" />
	<path
   d="M259.297,43.537c-10.659,0-18.725-8.254-18.725-19.81c0-10.848,9.149-18.584,18.725-18.584   c9.528,0,18.726,7.736,18.726,18.584C278.022,35.283,269.957,43.537,259.297,43.537z M259.297,30.896   c3.443,0,6.604-2.971,6.604-7.169c0-3.396-3.16-6.273-6.604-6.273c-3.49,0-6.65,2.876-6.65,6.273   C252.646,27.925,255.807,30.896,259.297,30.896z"
   id="path1963" />
	<path
   d="M304.954,21.274V6.464l11.98-0.801v37.543l-23.206-15.989v15.046h-12.027V4.625L304.954,21.274z"
   id="path1965" />
	<path
   d="M321.886,9.294c0-2.028,1.604-3.631,3.631-3.631c2.028,0,3.633,1.603,3.633,3.631c0,2.028-1.604,3.632-3.633,3.632   C323.489,12.926,321.886,11.322,321.886,9.294z M328.726,9.294c0-1.792-1.415-3.207-3.209-3.207c-1.744,0-3.207,1.415-3.207,3.207   s1.463,3.207,3.207,3.207C327.311,12.501,328.726,11.086,328.726,9.294z M327.357,11.322h-0.613l-1.18-1.886h-0.896v1.886h-0.52   V7.266h1.793c0.329,0,0.708,0,0.99,0.189c0.33,0.189,0.472,0.519,0.472,0.895c0,0.802-0.566,1.086-1.274,1.086L327.357,11.322z    M325.424,9.058c0.565,0,1.461,0.095,1.461-0.753c0-0.614-0.565-0.708-1.037-0.708h-1.179v1.461H325.424z"
   id="path1967" />
</g>
</svg>